PathFileType	4	(X/Y/Z)	2014001\dynamic\2014001_C1_03.trc
DataRate	CameraRate	NumFrames	NumMarkers	Units	OrigDataRate	OrigDataStartFrame	OrigNumFrames
100.000000	100.000000	4	52	mm	100.000000	122	490
Frame#	Time	L_IAS			L_IPS			R_IPS			R_IAS			L_FTC			L_FLE			L_FME			L_FAX			L_TTC			L_FAL			L_TAM			L_FCC			L_FM1			L_FM2			L_FM5			R_FTC			R_FLE			R_FME			R_FAX			R_TTC			R_FAL			R_TAM			R_FCC			R_FM1			R_FM2			R_FM5			CV7			TV10			SXS			SJN			L_SIA			L_SRS			L_SAA			L_SAE			L_HLE			L_HME			L_UOA			L_RSP			L_UHE			L_HM2			L_HM5			R_SIA			R_SRS			R_SAA			R_SAE			R_HLE			R_HME			R_UOA			R_RSP			R_UHE			R_HM2			R_HM5			
		X1	Y1	Z1	X2	Y2	Z2	X3	Y3	Z3	X4	Y4	Z4	X5	Y5	Z5	X6	Y6	Z6	X7	Y7	Z7	X8	Y8	Z8	X9	Y9	Z9	X10	Y10	Z10	X11	Y11	Z11	X12	Y12	Z12	X13	Y13	Z13	X14	Y14	Z14	X15	Y15	Z15	X16	Y16	Z16	X17	Y17	Z17	X18	Y18	Z18	X19	Y19	Z19	X20	Y20	Z20	X21	Y21	Z21	X22	Y22	Z22	X23	Y23	Z23	X24	Y24	Z24	X25	Y25	Z25	X26	Y26	Z26	X27	Y27	Z27	X28	Y28	Z28	X29	Y29	Z29	X30	Y30	Z30	X31	Y31	Z31	X32	Y32	Z32	X33	Y33	Z33	X34	Y34	Z34	X35	Y35	Z35	X36	Y36	Z36	X37	Y37	Z37	X38	Y38	Z38	X39	Y39	Z39	X40	Y40	Z40	X41	Y41	Z41	X42	Y42	Z42	X43	Y43	Z43	X44	Y44	Z44	X45	Y45	Z45	X46	Y46	Z46	X47	Y47	Z47	X48	Y48	Z48	X49	Y49	Z49	X50	Y50	Z50	X51	Y51	Z51	X52	Y52	Z52	

123	1.22	443.0433044433596	870.8578491210942	278.5059204101564	364.1023559570314	911.2204589843755	103.2638854980469	273.9901123046876	910.9743041992192	102.4269104003907	203.0590362548829	891.8193969726567	283.4911499023439	487.0447998046877	782.3344726562505	196.7491302490236	420.7840270996096	431.4725341796877	173.6237792968751	309.3792114257814	430.0685119628909	202.8127288818361	417.2978210449221	371.921356201172	148.6156463623047	373.2573852539064	351.3790893554689	211.2354583740236	338.4554443359376	60.66430664062503	103.8920822143555	255.5568695068361	74.74640655517581	135.8785095214844	286.8706665039064	22.63745689392091	64.67520141601565	282.2919311523439	25.8264675140381	247.8321838378907	345.4365539550782	36.24735641479494	249.9874877929689	385.7078247070315	23.78789520263673	189.5095367431641	136.7255859375001	795.5104980468755	203.1434783935548	134.3758544921876	462.9897766113284	318.9170532226564	253.1182403564454	438.9639282226565	345.1742248535157	127.8113021850587	407.6607360839846	289.8633728027345	168.4353942871094	382.1517333984376	358.3175354003907	150.8536987304688	115.3854675292969	173.3404235839844	228.6225738525392	111.3852996826172	224.8141021728517	208.8534088134767	77.86585998535159	128.1343383789063	190.3038940429688	39.7919044494629	309.532196044922	133.7130126953126	54.58003616333011	301.8255615234376	103.6771545410157	50.34700775146487	244.8384857177736	320.5334472656251	1382.045654296875	138.7324981689454	330.0254516601564	1150.275146484375	69.039176940918	334.7259521484376	1148.950439453125	298.909881591797	327.2341308593751	1311.364013671875	262.4182128906251	424.356140136719	1193.807250976563	63.76519775390628	413.4082946777346	1324.21875	91.22573089599612	521.6643676757815	1321.58740234375	167.1308746337891	506.1059570312502	1329.854736328125	208.3230438232423	586.7856445312502	1047.609130859375	164.1285858154297	511.9062194824221	1016.937377929688	134.1822967529297	561.7841796875002	1015.965515136719	128.555160522461	549.797058105469	814.7290039062505	251.8103179931642	617.3793945312502	813.2811889648442	206.6988372802736	558.165466308594	732.8282470703127	280.094207763672	621.6002197265627	735.083435058594	200.2877807617189	215.9120635986329	1190.847900390625	63.45682525634768	234.1362915039064	1314.078979492188	94.78425598144534	132.6815643310547	1301.443603515625	174.3339996337891	144.4536743164063	1304.788940429688	222.9721221923829	72.88565826416018	1008.752014160157	154.3843688964844	150.824935913086	991.129028320313	136.1654052734376	105.4838562011719	985.924438476563	127.0020141601563	81.75975036621097	796.1475219726567	245.8339233398439	27.60463142395021	798.8793945312505	184.9888610839844	57.00664901733401	706.1696777343752	268.6980590820314	25.62526702880861	719.983825683594	171.6982116699219	
124	1.23	443.3211669921877	870.666381835938	280.2251892089845	364.0166931152345	910.9331054687505	105.0937881469727	273.9175720214845	910.6457519531255	104.385726928711	203.307830810547	891.8218383789067	285.6065368652345	487.1592712402346	782.1785278320317	198.2567596435548	420.7868957519534	431.3825988769534	174.5526580810547	309.368133544922	429.8683166503909	203.841278076172	417.2760009765627	371.9020080566407	149.4079132080079	373.303924560547	351.163543701172	211.9763946533204	338.4261169433595	60.75735855102542	103.9372482299805	255.4924163818361	74.80369567871097	135.9476470947266	286.7629699707032	22.71772193908692	64.56066894531253	282.3857727050782	25.91458702087404	247.9870605468751	345.5317687988282	36.16782760620119	249.9745941162111	385.7442016601565	23.79684066772462	189.4806060791016	136.7947387695313	795.4074707031255	205.6184234619142	134.9828643798829	463.3453063964846	323.5587768554689	253.7132263183595	439.7914733886721	349.5361328125001	128.246810913086	407.3183288574221	295.4778442382814	169.2569885253907	383.2120971679689	364.1570129394532	150.8475799560547	112.5707778930665	185.2859954833985	228.7637481689454	109.7142715454102	236.4185333251954	208.6419830322267	73.77625274658206	140.8051757812501	190.722885131836	40.19550704956056	323.0532836914064	134.0796051025391	54.88786315917972	315.1286926269532	103.8580474853516	49.37287521362308	258.4277648925782	320.5522766113282	1381.800903320313	140.4548339843751	329.915985107422	1150.0166015625	70.76445770263675	334.7562561035157	1148.692749023438	300.628387451172	327.2937927246095	1311.102661132813	264.132537841797	424.2100524902346	1193.510864257813	65.39641571044925	413.3544616699221	1323.93115234375	92.86682128906253	521.6550903320315	1321.238647460938	168.6857604980469	506.161560058594	1329.50244140625	209.8922271728517	586.7437133789065	1047.27734375	165.3820190429688	511.8518676757815	1016.651123046875	135.4533843994141	561.719421386719	1015.705932617188	129.7666168212891	549.9295043945315	814.258178710938	252.6261138916017	617.4437255859377	812.9177856445317	207.506317138672	558.3366699218752	732.322692871094	280.8244934082032	621.6856689453127	734.7349853515627	200.9632873535157	215.8744049072267	1190.638305664063	65.17739105224612	234.1205596923829	1313.891235351563	96.50689697265631	132.7052001953126	1301.250366210938	176.0899047851563	144.3771057128907	1304.721435546875	224.7373809814454	73.03878021240237	1008.555419921875	155.6788177490235	150.9929199218751	991.0459594726567	137.4714965820313	105.6679458618165	985.7813110351567	128.2782287597657	82.07661437988284	795.8950195312505	246.9303741455079	27.95905113220216	798.6132202148442	186.0728302001954	57.3439636230469	705.9593505859377	269.8062438964845	26.09127998352052	719.7113037109377	172.7275390625001	
125	1.24	443.5626525878909	870.4638061523442	281.9750976562501	363.915740966797	910.654174804688	106.9501495361329	273.8273315429689	910.3259277343755	106.3607711791993	203.5160369873048	891.8110351562505	287.7353515625001	487.2500610351565	782.0146484375005	199.8094177246095	420.7754821777346	431.2839965820315	175.5202789306641	309.3290100097657	429.6641845703127	204.8667144775392	417.243591308594	371.8712158203126	150.2386932373047	373.3200073242189	350.9471130371095	212.7483520507814	338.3963928222657	60.83765411376956	103.9910736083985	255.4276123046876	74.87807464599612	135.9761505126954	286.6727905273439	22.79299354553223	64.477409362793	282.4769287109376	25.97987937927248	248.1416473388673	345.6228637695314	36.08911132812501	249.9490356445314	385.7732543945315	23.80737304687501	189.450912475586	136.8286132812501	795.2935180664067	208.0496520996095	135.5722198486329	463.6844482421877	328.1212158203126	254.2699584960939	440.6419067382815	353.8433227539064	128.6690673828126	406.9584045410159	301.0585937500001	170.0550079345704	384.2787170410159	369.931121826172	150.9234008789063	109.8459091186524	197.3135986328126	228.992889404297	108.193946838379	248.0547332763673	208.542694091797	69.79336547851565	153.6602020263672	191.2345886230469	40.70547103881837	336.5765686035157	134.5400695800782	55.29878616333011	328.4542541503907	104.1355209350587	48.49535751342776	272.0482482910157	320.5415344238282	1381.552124023438	142.2037353515626	329.7793884277345	1149.752685546875	72.52230072021487	334.7638244628907	1148.428833007813	302.3753051757814	327.3258056640626	1310.8369140625	265.8750915527345	424.0365905761721	1193.208129882813	67.05936431884768	413.2677917480471	1323.63671875	94.53481292724612	521.6156005859377	1320.888793945313	170.263900756836	506.1864929199221	1329.150756835938	211.4845123291017	586.6665039062502	1046.943237304688	166.6948394775391	511.758239746094	1016.354736328125	136.7976379394532	561.613952636719	1015.433166503907	131.0496063232422	550.0110473632815	813.7998657226567	253.5467529296876	617.4565429687502	812.5544433593755	208.4242401123048	558.4465942382815	731.831970214844	281.6769104003907	621.7138671875002	734.3842773437502	201.7630157470704	215.8047027587892	1190.419799804688	66.93400573730472	234.0722503662111	1313.686767578125	98.26823425292974	132.6985321044922	1301.047119140625	177.8850097656251	144.2863769531251	1304.625610351563	226.5391693115236	73.159294128418	1008.337158203125	157.0518493652344	151.1201782226563	990.9409179687505	138.8372802734376	105.8094100952149	985.6004028320317	129.631088256836	82.43225097656253	795.666137695313	248.2382965087892	28.33010864257814	798.3244628906255	187.3673095703126	57.73964309692386	705.7988281250002	271.1724548339845	26.58618927001955	719.4089355468752	174.0179290771485	
126	1.25	443.7680358886721	870.250854492188	283.7548828125001	363.7979736328126	910.381225585938	108.8350830078126	273.7196350097657	910.012573242188	108.3563766479493	203.6848907470704	891.786254882813	289.8799743652345	487.3175048828127	781.8391723632817	201.4097900390626	420.7502441406252	431.1754455566409	176.529281616211	309.2691650390626	429.4560852050784	205.9042205810548	417.201599121094	371.8277282714845	151.1132507324219	373.3079223632814	350.7274475097657	213.5552825927736	338.365203857422	60.904411315918	104.0514831542969	255.3631134033204	74.96105957031253	135.9755249023438	286.5997314453126	22.86252975463868	64.42519378662112	282.5618591308595	26.01970291137697	248.2886352539064	345.7073669433595	36.01365280151369	249.9122314453126	385.7951660156252	23.81801223754884	189.4204864501954	136.8308563232422	795.1687011718755	210.4515380859376	136.1414642333985	464.0059814453127	332.5957336425782	254.7849731445314	441.5091247558596	358.0929565429689	129.0793609619141	406.5825500488284	306.5975646972657	170.8207244873047	385.3496704101565	375.6339416503907	151.0741729736329	107.2172927856446	209.4179840087892	229.3044738769532	106.8065490722657	259.7441406250001	208.5508270263673	65.92417907714847	166.6969909667969	191.8172302246094	41.32524871826173	350.104705810547	135.0780792236329	55.81810379028323	341.8002319335939	104.4938354492188	47.71870422363283	285.6946411132814	320.5008544921876	1381.298461914063	143.982894897461	329.6163940429689	1149.483154296875	74.31421661376956	334.748016357422	1148.159545898438	304.1529235839845	327.3292541503907	1310.56689453125	267.6470336914064	423.8368835449221	1192.899169921875	68.75526428222659	413.1484680175784	1323.335571289063	96.23215484619146	521.545837402344	1320.537963867188	171.8682556152344	506.1800231933596	1328.799926757813	213.1029205322267	586.554382324219	1046.6064453125	168.0697937011719	511.6268310546877	1016.048828125	138.2151947021485	561.469421386719	1015.147644042969	132.4058837890626	550.0361328125002	813.3552856445317	254.5819396972657	617.4170532226565	812.190551757813	209.4554595947267	558.4917602539065	731.356140136719	282.6524658203126	621.683532714844	734.0303344726565	202.6895141601564	215.7034759521486	1190.191528320313	68.72772216796878	233.9912719726564	1313.466552734375	100.0662231445313	132.6609954833985	1300.832275390625	179.7194976806641	144.1836090087891	1304.495849609375	228.3776245117189	73.24854278564456	1008.096069335938	158.5093536376954	151.2086486816407	990.810668945313	140.2715148925782	105.9102478027344	985.3803710937505	131.067611694336	82.82001495361331	795.4570312500005	249.7526397705079	28.71235466003419	798.012329101563	188.8710021972657	58.18789291381839	705.6798095703127	272.7909240722657	27.10161781311037	719.0773925781252	175.5644836425782	
